<svg width="100" height="76" viewBox="0 0 100 76" fill="none" xmlns="http://www.w3.org/2000/svg">
<rect x="8.72638" y="26" width="4.24526" height="4.24526" transform="rotate(45 8.72638 26)" fill="#E60024" fill-opacity="0.1"/>
<rect x="8.72638" y="34.898" width="4.24526" height="4.24526" transform="rotate(45 8.72638 34.898)" fill="#E60024" fill-opacity="0.1"/>
<rect x="8.72638" y="43.8603" width="4.24526" height="4.24526" transform="rotate(45 8.72638 43.8603)" fill="#E60024" fill-opacity="0.1"/>
<rect x="21.4622" y="26" width="4.24526" height="4.24526" transform="rotate(45 21.4622 26)" fill="#E60024" fill-opacity="0.1"/>
<rect x="21.4622" y="34.898" width="4.24526" height="4.24526" transform="rotate(45 21.4622 34.898)" fill="#E60024" fill-opacity="0.1"/>
<rect x="21.4622" y="43.8603" width="4.24526" height="4.24526" transform="rotate(45 21.4622 43.8603)" fill="#E60024" fill-opacity="0.1"/>
<rect x="34.1979" y="26" width="4.24526" height="4.24526" transform="rotate(45 34.1979 26)" fill="#E60024" fill-opacity="0.1"/>
<rect x="34.1979" y="34.898" width="4.24526" height="4.24526" transform="rotate(45 34.1979 34.898)" fill="#E60024" fill-opacity="0.1"/>
<rect x="34.1979" y="43.8603" width="4.24526" height="4.24526" transform="rotate(45 34.1979 43.8603)" fill="#E60024" fill-opacity="0.1"/>
<rect x="46.9337" y="26" width="4.24526" height="4.24526" transform="rotate(45 46.9337 26)" fill="#E60024" fill-opacity="0.1"/>
<rect x="46.9337" y="34.898" width="4.24526" height="4.24526" transform="rotate(45 46.9337 34.898)" fill="#E60024" fill-opacity="0.1"/>
<rect x="46.9337" y="43.8603" width="4.24526" height="4.24526" transform="rotate(45 46.9337 43.8603)" fill="#E60024" fill-opacity="0.1"/>
<circle cx="2.35848" cy="29.2377" r="2.35848" fill="#E60024" fill-opacity="0.1"/>
<circle cx="2.35848" cy="38.1357" r="2.35848" fill="#E60024" fill-opacity="0.1"/>
<circle cx="2.35848" cy="47.098" r="2.35848" fill="#E60024" fill-opacity="0.1"/>
<circle cx="15.0943" cy="29.2377" r="2.35848" fill="#E60024" fill-opacity="0.1"/>
<circle cx="15.0943" cy="38.1357" r="2.35848" fill="#E60024" fill-opacity="0.1"/>
<circle cx="15.0943" cy="47.098" r="2.35848" fill="#E60024" fill-opacity="0.1"/>
<circle cx="27.83" cy="29.2377" r="2.35848" fill="#E60024" fill-opacity="0.1"/>
<circle cx="27.83" cy="38.1357" r="2.35848" fill="#E60024" fill-opacity="0.1"/>
<circle cx="27.83" cy="47.098" r="2.35848" fill="#E60024" fill-opacity="0.1"/>
<circle cx="40.5658" cy="29.2377" r="2.35848" fill="#E60024" fill-opacity="0.1"/>
<circle cx="40.5658" cy="38.1357" r="2.35848" fill="#E60024" fill-opacity="0.1"/>
<circle cx="40.5658" cy="47.098" r="2.35848" fill="#E60024" fill-opacity="0.1"/>
<rect x="58.7264" y="26" width="4.24526" height="4.24526" transform="rotate(45 58.7264 26)" fill="#E60024" fill-opacity="0.1"/>
<rect x="58.7264" y="34.898" width="4.24526" height="4.24526" transform="rotate(45 58.7264 34.898)" fill="#E60024" fill-opacity="0.1"/>
<rect x="58.7264" y="43.8603" width="4.24526" height="4.24526" transform="rotate(45 58.7264 43.8603)" fill="#E60024" fill-opacity="0.1"/>
<rect x="71.4622" y="26" width="4.24526" height="4.24526" transform="rotate(45 71.4622 26)" fill="#E60024" fill-opacity="0.1"/>
<rect x="71.4622" y="34.898" width="4.24526" height="4.24526" transform="rotate(45 71.4622 34.898)" fill="#E60024" fill-opacity="0.1"/>
<rect x="71.4622" y="43.8603" width="4.24526" height="4.24526" transform="rotate(45 71.4622 43.8603)" fill="#E60024" fill-opacity="0.1"/>
<rect x="84.1979" y="26" width="4.24526" height="4.24526" transform="rotate(45 84.1979 26)" fill="#E60024" fill-opacity="0.1"/>
<rect x="84.1979" y="34.898" width="4.24526" height="4.24526" transform="rotate(45 84.1979 34.898)" fill="#E60024" fill-opacity="0.1"/>
<rect x="84.1979" y="43.8603" width="4.24526" height="4.24526" transform="rotate(45 84.1979 43.8603)" fill="#E60024" fill-opacity="0.1"/>
<rect x="96.9337" y="26" width="4.24526" height="4.24526" transform="rotate(45 96.9337 26)" fill="#E60024" fill-opacity="0.1"/>
<rect x="96.9337" y="34.898" width="4.24526" height="4.24526" transform="rotate(45 96.9337 34.898)" fill="#E60024" fill-opacity="0.1"/>
<rect x="96.9337" y="43.8603" width="4.24526" height="4.24526" transform="rotate(45 96.9337 43.8603)" fill="#E60024" fill-opacity="0.1"/>
<circle cx="52.3585" cy="29.2377" r="2.35848" fill="#E60024" fill-opacity="0.1"/>
<circle cx="52.3585" cy="38.1357" r="2.35848" fill="#E60024" fill-opacity="0.1"/>
<circle cx="52.3585" cy="47.098" r="2.35848" fill="#E60024" fill-opacity="0.1"/>
<circle cx="65.0943" cy="29.2377" r="2.35848" fill="#E60024" fill-opacity="0.1"/>
<circle cx="65.0943" cy="38.1357" r="2.35848" fill="#E60024" fill-opacity="0.1"/>
<circle cx="65.0943" cy="47.098" r="2.35848" fill="#E60024" fill-opacity="0.1"/>
<circle cx="77.83" cy="29.2377" r="2.35848" fill="#E60024" fill-opacity="0.1"/>
<circle cx="77.83" cy="38.1357" r="2.35848" fill="#E60024" fill-opacity="0.1"/>
<circle cx="77.83" cy="47.098" r="2.35848" fill="#E60024" fill-opacity="0.1"/>
<circle cx="90.5658" cy="29.2377" r="2.35848" fill="#E60024" fill-opacity="0.1"/>
<circle cx="90.5658" cy="38.1357" r="2.35848" fill="#E60024" fill-opacity="0.1"/>
<circle cx="90.5658" cy="47.098" r="2.35848" fill="#E60024" fill-opacity="0.1"/>
<rect x="8.72638" width="4.24526" height="4.24526" transform="rotate(45 8.72638 0)" fill="#E60024" fill-opacity="0.1"/>
<rect x="8.72638" y="8.89804" width="4.24526" height="4.24526" transform="rotate(45 8.72638 8.89804)" fill="#E60024" fill-opacity="0.1"/>
<rect x="8.72638" y="17.8603" width="4.24526" height="4.24526" transform="rotate(45 8.72638 17.8603)" fill="#E60024" fill-opacity="0.1"/>
<rect x="21.4622" width="4.24526" height="4.24526" transform="rotate(45 21.4622 0)" fill="#E60024" fill-opacity="0.1"/>
<rect x="21.4622" y="8.89804" width="4.24526" height="4.24526" transform="rotate(45 21.4622 8.89804)" fill="#E60024" fill-opacity="0.1"/>
<rect x="21.4622" y="17.8603" width="4.24526" height="4.24526" transform="rotate(45 21.4622 17.8603)" fill="#E60024" fill-opacity="0.1"/>
<rect x="34.1979" width="4.24526" height="4.24526" transform="rotate(45 34.1979 0)" fill="#E60024" fill-opacity="0.1"/>
<rect x="34.1979" y="8.89804" width="4.24526" height="4.24526" transform="rotate(45 34.1979 8.89804)" fill="#E60024" fill-opacity="0.1"/>
<rect x="34.1979" y="17.8603" width="4.24526" height="4.24526" transform="rotate(45 34.1979 17.8603)" fill="#E60024" fill-opacity="0.1"/>
<rect x="46.9337" width="4.24526" height="4.24526" transform="rotate(45 46.9337 0)" fill="#E60024" fill-opacity="0.1"/>
<rect x="46.9337" y="8.89804" width="4.24526" height="4.24526" transform="rotate(45 46.9337 8.89804)" fill="#E60024" fill-opacity="0.1"/>
<rect x="46.9337" y="17.8603" width="4.24526" height="4.24526" transform="rotate(45 46.9337 17.8603)" fill="#E60024" fill-opacity="0.1"/>
<circle cx="2.35848" cy="3.2377" r="2.35848" fill="#E60024" fill-opacity="0.1"/>
<circle cx="2.35848" cy="12.1357" r="2.35848" fill="#E60024" fill-opacity="0.1"/>
<circle cx="2.35848" cy="21.098" r="2.35848" fill="#E60024" fill-opacity="0.1"/>
<circle cx="15.0943" cy="3.2377" r="2.35848" fill="#E60024" fill-opacity="0.1"/>
<circle cx="15.0943" cy="12.1357" r="2.35848" fill="#E60024" fill-opacity="0.1"/>
<circle cx="15.0943" cy="21.098" r="2.35848" fill="#E60024" fill-opacity="0.1"/>
<circle cx="27.83" cy="3.2377" r="2.35848" fill="#E60024" fill-opacity="0.1"/>
<circle cx="27.83" cy="12.1357" r="2.35848" fill="#E60024" fill-opacity="0.1"/>
<circle cx="27.83" cy="21.098" r="2.35848" fill="#E60024" fill-opacity="0.1"/>
<circle cx="40.5658" cy="3.2377" r="2.35848" fill="#E60024" fill-opacity="0.1"/>
<circle cx="40.5658" cy="12.1357" r="2.35848" fill="#E60024" fill-opacity="0.1"/>
<circle cx="40.5658" cy="21.098" r="2.35848" fill="#E60024" fill-opacity="0.1"/>
<rect x="58.7264" width="4.24526" height="4.24526" transform="rotate(45 58.7264 0)" fill="#E60024" fill-opacity="0.1"/>
<rect x="58.7264" y="8.89804" width="4.24526" height="4.24526" transform="rotate(45 58.7264 8.89804)" fill="#E60024" fill-opacity="0.1"/>
<rect x="58.7264" y="17.8603" width="4.24526" height="4.24526" transform="rotate(45 58.7264 17.8603)" fill="#E60024" fill-opacity="0.1"/>
<rect x="71.4622" width="4.24526" height="4.24526" transform="rotate(45 71.4622 0)" fill="#E60024" fill-opacity="0.1"/>
<rect x="71.4622" y="8.89804" width="4.24526" height="4.24526" transform="rotate(45 71.4622 8.89804)" fill="#E60024" fill-opacity="0.1"/>
<rect x="71.4622" y="17.8603" width="4.24526" height="4.24526" transform="rotate(45 71.4622 17.8603)" fill="#E60024" fill-opacity="0.1"/>
<rect x="84.1979" width="4.24526" height="4.24526" transform="rotate(45 84.1979 0)" fill="#E60024" fill-opacity="0.1"/>
<rect x="84.1979" y="8.89804" width="4.24526" height="4.24526" transform="rotate(45 84.1979 8.89804)" fill="#E60024" fill-opacity="0.1"/>
<rect x="84.1979" y="17.8603" width="4.24526" height="4.24526" transform="rotate(45 84.1979 17.8603)" fill="#E60024" fill-opacity="0.1"/>
<rect x="96.9337" width="4.24526" height="4.24526" transform="rotate(45 96.9337 0)" fill="#E60024" fill-opacity="0.1"/>
<rect x="96.9337" y="8.89804" width="4.24526" height="4.24526" transform="rotate(45 96.9337 8.89804)" fill="#E60024" fill-opacity="0.1"/>
<rect x="96.9337" y="17.8603" width="4.24526" height="4.24526" transform="rotate(45 96.9337 17.8603)" fill="#E60024" fill-opacity="0.1"/>
<circle cx="52.3585" cy="3.2377" r="2.35848" fill="#E60024" fill-opacity="0.1"/>
<circle cx="52.3585" cy="12.1357" r="2.35848" fill="#E60024" fill-opacity="0.1"/>
<circle cx="52.3585" cy="21.098" r="2.35848" fill="#E60024" fill-opacity="0.1"/>
<circle cx="65.0943" cy="3.2377" r="2.35848" fill="#E60024" fill-opacity="0.1"/>
<circle cx="65.0943" cy="12.1357" r="2.35848" fill="#E60024" fill-opacity="0.1"/>
<circle cx="65.0943" cy="21.098" r="2.35848" fill="#E60024" fill-opacity="0.1"/>
<circle cx="77.83" cy="3.2377" r="2.35848" fill="#E60024" fill-opacity="0.1"/>
<circle cx="77.83" cy="12.1357" r="2.35848" fill="#E60024" fill-opacity="0.1"/>
<circle cx="77.83" cy="21.098" r="2.35848" fill="#E60024" fill-opacity="0.1"/>
<circle cx="90.5658" cy="3.2377" r="2.35848" fill="#E60024" fill-opacity="0.1"/>
<circle cx="90.5658" cy="12.1357" r="2.35848" fill="#E60024" fill-opacity="0.1"/>
<circle cx="90.5658" cy="21.098" r="2.35848" fill="#E60024" fill-opacity="0.1"/>
<rect x="8.72638" y="52" width="4.24526" height="4.24526" transform="rotate(45 8.72638 52)" fill="#E60024" fill-opacity="0.1"/>
<rect x="8.72638" y="60.898" width="4.24526" height="4.24526" transform="rotate(45 8.72638 60.898)" fill="#E60024" fill-opacity="0.1"/>
<rect x="8.72638" y="69.8603" width="4.24526" height="4.24526" transform="rotate(45 8.72638 69.8603)" fill="#E60024" fill-opacity="0.1"/>
<rect x="21.4622" y="52" width="4.24526" height="4.24526" transform="rotate(45 21.4622 52)" fill="#E60024" fill-opacity="0.1"/>
<rect x="21.4622" y="60.898" width="4.24526" height="4.24526" transform="rotate(45 21.4622 60.898)" fill="#E60024" fill-opacity="0.1"/>
<rect x="21.4622" y="69.8603" width="4.24526" height="4.24526" transform="rotate(45 21.4622 69.8603)" fill="#E60024" fill-opacity="0.1"/>
<rect x="34.1979" y="52" width="4.24526" height="4.24526" transform="rotate(45 34.1979 52)" fill="#E60024" fill-opacity="0.1"/>
<rect x="34.1979" y="60.898" width="4.24526" height="4.24526" transform="rotate(45 34.1979 60.898)" fill="#E60024" fill-opacity="0.1"/>
<rect x="34.1979" y="69.8603" width="4.24526" height="4.24526" transform="rotate(45 34.1979 69.8603)" fill="#E60024" fill-opacity="0.1"/>
<rect x="46.9337" y="52" width="4.24526" height="4.24526" transform="rotate(45 46.9337 52)" fill="#E60024" fill-opacity="0.1"/>
<rect x="46.9337" y="60.898" width="4.24526" height="4.24526" transform="rotate(45 46.9337 60.898)" fill="#E60024" fill-opacity="0.1"/>
<rect x="46.9337" y="69.8603" width="4.24526" height="4.24526" transform="rotate(45 46.9337 69.8603)" fill="#E60024" fill-opacity="0.1"/>
<circle cx="2.35848" cy="55.2377" r="2.35848" fill="#E60024" fill-opacity="0.1"/>
<circle cx="2.35848" cy="64.1357" r="2.35848" fill="#E60024" fill-opacity="0.1"/>
<circle cx="2.35848" cy="73.098" r="2.35848" fill="#E60024" fill-opacity="0.1"/>
<circle cx="15.0943" cy="55.2377" r="2.35848" fill="#E60024" fill-opacity="0.1"/>
<circle cx="15.0943" cy="64.1357" r="2.35848" fill="#E60024" fill-opacity="0.1"/>
<circle cx="15.0943" cy="73.098" r="2.35848" fill="#E60024" fill-opacity="0.1"/>
<circle cx="27.83" cy="55.2377" r="2.35848" fill="#E60024" fill-opacity="0.1"/>
<circle cx="27.83" cy="64.1357" r="2.35848" fill="#E60024" fill-opacity="0.1"/>
<circle cx="27.83" cy="73.098" r="2.35848" fill="#E60024" fill-opacity="0.1"/>
<circle cx="40.5658" cy="55.2377" r="2.35848" fill="#E60024" fill-opacity="0.1"/>
<circle cx="40.5658" cy="64.1357" r="2.35848" fill="#E60024" fill-opacity="0.1"/>
<circle cx="40.5658" cy="73.098" r="2.35848" fill="#E60024" fill-opacity="0.1"/>
<rect x="58.7264" y="52" width="4.24526" height="4.24526" transform="rotate(45 58.7264 52)" fill="#E60024" fill-opacity="0.1"/>
<rect x="58.7264" y="60.898" width="4.24526" height="4.24526" transform="rotate(45 58.7264 60.898)" fill="#E60024" fill-opacity="0.1"/>
<rect x="58.7264" y="69.8603" width="4.24526" height="4.24526" transform="rotate(45 58.7264 69.8603)" fill="#E60024" fill-opacity="0.1"/>
<rect x="71.4622" y="52" width="4.24526" height="4.24526" transform="rotate(45 71.4622 52)" fill="#E60024" fill-opacity="0.1"/>
<rect x="71.4622" y="60.898" width="4.24526" height="4.24526" transform="rotate(45 71.4622 60.898)" fill="#E60024" fill-opacity="0.1"/>
<rect x="71.4622" y="69.8603" width="4.24526" height="4.24526" transform="rotate(45 71.4622 69.8603)" fill="#E60024" fill-opacity="0.1"/>
<rect x="84.1979" y="52" width="4.24526" height="4.24526" transform="rotate(45 84.1979 52)" fill="#E60024" fill-opacity="0.1"/>
<rect x="84.1979" y="60.898" width="4.24526" height="4.24526" transform="rotate(45 84.1979 60.898)" fill="#E60024" fill-opacity="0.1"/>
<rect x="84.1979" y="69.8603" width="4.24526" height="4.24526" transform="rotate(45 84.1979 69.8603)" fill="#E60024" fill-opacity="0.1"/>
<rect x="96.9337" y="52" width="4.24526" height="4.24526" transform="rotate(45 96.9337 52)" fill="#E60024" fill-opacity="0.1"/>
<rect x="96.9337" y="60.898" width="4.24526" height="4.24526" transform="rotate(45 96.9337 60.898)" fill="#E60024" fill-opacity="0.1"/>
<rect x="96.9337" y="69.8603" width="4.24526" height="4.24526" transform="rotate(45 96.9337 69.8603)" fill="#E60024" fill-opacity="0.1"/>
<circle cx="52.3585" cy="55.2377" r="2.35848" fill="#E60024" fill-opacity="0.1"/>
<circle cx="52.3585" cy="64.1357" r="2.35848" fill="#E60024" fill-opacity="0.1"/>
<circle cx="52.3585" cy="73.098" r="2.35848" fill="#E60024" fill-opacity="0.1"/>
<circle cx="65.0943" cy="55.2377" r="2.35848" fill="#E60024" fill-opacity="0.1"/>
<circle cx="65.0943" cy="64.1357" r="2.35848" fill="#E60024" fill-opacity="0.1"/>
<circle cx="65.0943" cy="73.098" r="2.35848" fill="#E60024" fill-opacity="0.1"/>
<circle cx="77.83" cy="55.2377" r="2.35848" fill="#E60024" fill-opacity="0.1"/>
<circle cx="77.83" cy="64.1357" r="2.35848" fill="#E60024" fill-opacity="0.1"/>
<circle cx="77.83" cy="73.098" r="2.35848" fill="#E60024" fill-opacity="0.1"/>
<circle cx="90.5658" cy="55.2377" r="2.35848" fill="#E60024" fill-opacity="0.1"/>
<circle cx="90.5658" cy="64.1357" r="2.35848" fill="#E60024" fill-opacity="0.1"/>
<circle cx="90.5658" cy="73.098" r="2.35848" fill="#E60024" fill-opacity="0.1"/>
</svg>
