<svg width="18" height="18" viewBox="0 0 18 18" fill="none" xmlns="http://www.w3.org/2000/svg">
<path opacity="0.1" fill-rule="evenodd" clip-rule="evenodd" d="M0 9C0 4.02944 4.02944 0 9 0C13.9706 0 18 4.02944 18 9C18 13.9706 13.9706 18 9 18C4.02944 18 0 13.9706 0 9Z" fill="#D87E7E"/>
<path fill-rule="evenodd" clip-rule="evenodd" d="M9.00046 4.19995C7.69685 4.19995 7.53325 4.20565 7.02124 4.22895C6.51024 4.25235 6.16143 4.33325 5.85623 4.45195C5.54053 4.57456 5.27272 4.73856 5.00592 5.00546C4.73892 5.27226 4.57492 5.54006 4.45191 5.85567C4.33291 6.16097 4.25191 6.50988 4.22891 7.02068C4.20601 7.53269 4.20001 7.69639 4.20001 9C4.20001 10.3036 4.20581 10.4667 4.22901 10.9787C4.25251 11.4897 4.33341 11.8385 4.45201 12.1437C4.57472 12.4594 4.73872 12.7272 5.00562 12.994C5.27232 13.261 5.54013 13.4254 5.85563 13.548C6.16103 13.6667 6.50994 13.7477 7.02084 13.7711C7.53285 13.7944 7.69635 13.8001 8.99986 13.8001C10.3036 13.8001 10.4667 13.7944 10.9787 13.7711C11.4897 13.7477 11.8389 13.6667 12.1443 13.548C12.4599 13.4254 12.7273 13.261 12.994 12.994C13.261 12.7272 13.425 12.4594 13.548 12.1438C13.666 11.8385 13.747 11.4896 13.771 10.9788C13.794 10.4668 13.8 10.3036 13.8 9C13.8 7.69639 13.794 7.53279 13.771 7.02078C13.747 6.50977 13.666 6.16097 13.548 5.85577C13.425 5.54007 13.261 5.27226 12.994 5.00546C12.727 4.73846 12.46 4.57446 12.144 4.45195C11.838 4.33325 11.489 4.25235 10.978 4.22895C10.466 4.20565 10.303 4.19995 8.99896 4.19995H9.00046ZM8.56984 5.06495C8.69764 5.06475 8.84024 5.06495 9.00044 5.06495C10.2821 5.06495 10.434 5.06955 10.9401 5.09255C11.4081 5.11395 11.6621 5.19215 11.8313 5.25785C12.0553 5.34485 12.215 5.44885 12.3829 5.61685C12.5509 5.78485 12.6549 5.94486 12.7421 6.16886C12.8078 6.33786 12.8861 6.59186 12.9074 7.05987C12.9304 7.56587 12.9354 7.71787 12.9354 8.99889C12.9354 10.2799 12.9304 10.4319 12.9074 10.9379C12.886 11.4059 12.8078 11.6599 12.7421 11.8289C12.6551 12.0529 12.5509 12.2124 12.3829 12.3803C12.2149 12.5483 12.0554 12.6523 11.8313 12.7393C11.6623 12.8053 11.4081 12.8833 10.9401 12.9047C10.4341 12.9277 10.2821 12.9327 9.00044 12.9327C7.71873 12.9327 7.56683 12.9277 7.06082 12.9047C6.59282 12.8831 6.33881 12.8049 6.16951 12.7392C5.94551 12.6522 5.78551 12.5482 5.61751 12.3802C5.4495 12.2122 5.3455 12.0526 5.2583 11.8285C5.1926 11.6595 5.1143 11.4055 5.093 10.9375C5.07 10.4315 5.0654 10.2795 5.0654 8.99769C5.0654 7.71587 5.07 7.56467 5.093 7.05867C5.1144 6.59066 5.1926 6.33666 5.2583 6.16746C5.3453 5.94346 5.4495 5.78345 5.61751 5.61545C5.78551 5.44745 5.94551 5.34345 6.16951 5.25625C6.33871 5.19025 6.59282 5.11225 7.06082 5.09075C7.50363 5.07075 7.67523 5.06475 8.56984 5.06375V5.06495ZM11.5627 5.86196C11.2447 5.86196 10.9867 6.11966 10.9867 6.43776C10.9867 6.75577 11.2447 7.01377 11.5627 7.01377C11.8807 7.01377 12.1387 6.75577 12.1387 6.43776C12.1387 6.11976 11.8807 5.86196 11.5627 5.86196ZM9.00047 6.53496C7.63916 6.53496 6.53544 7.63867 6.53544 8.99999C6.53544 10.3613 7.63916 11.4645 9.00047 11.4645C10.3618 11.4645 11.4651 10.3613 11.4651 8.99999C11.4651 7.63867 10.3618 6.53496 9.00047 6.53496ZM9.00045 7.39997C9.88406 7.39997 10.6005 8.11628 10.6005 8.99999C10.6005 9.8836 9.88406 10.6 9.00045 10.6C8.11674 10.6 7.40043 9.8836 7.40043 8.99999C7.40043 8.11628 8.11674 7.39997 9.00045 7.39997Z" fill="#D87E7E"/>
</svg>
