<svg width="18" height="18" viewBox="0 0 18 18" fill="none" xmlns="http://www.w3.org/2000/svg">
<path opacity="0.1" fill-rule="evenodd" clip-rule="evenodd" d="M0 9C0 4.02944 4.02944 0 9 0C13.9706 0 18 4.02944 18 9C18 13.9706 13.9706 18 9 18C4.02944 18 0 13.9706 0 9Z" fill="#D87E7E"/>
<path fill-rule="evenodd" clip-rule="evenodd" d="M12.7506 5.90595C13.1637 6.0193 13.489 6.35328 13.5994 6.77741C13.8 7.54609 13.8 9.14995 13.8 9.14995C13.8 9.14995 13.8 10.7538 13.5994 11.5225C13.489 11.9466 13.1637 12.2806 12.7506 12.394C12.002 12.6 9.00001 12.6 9.00001 12.6C9.00001 12.6 5.99799 12.6 5.24936 12.394C4.83628 12.2806 4.51098 11.9466 4.40058 11.5225C4.20001 10.7538 4.20001 9.14995 4.20001 9.14995C4.20001 9.14995 4.20001 7.54609 4.40058 6.77741C4.51098 6.35328 4.83628 6.0193 5.24936 5.90595C5.99799 5.69995 9.00001 5.69995 9.00001 5.69995C9.00001 5.69995 12.002 5.69995 12.7506 5.90595ZM8.10002 7.79992V10.7999L10.5 9.29998L8.10002 7.79992Z" fill="#D87E7E"/>
</svg>
